<?xml version="1.0" encoding="UTF-8" standalone="no"?>
<!-- Created with Inkscape (http://www.inkscape.org/) -->

<svg
   xmlns:dc="http://purl.org/dc/elements/1.1/"
   xmlns:cc="http://creativecommons.org/ns#"
   xmlns:rdf="http://www.w3.org/1999/02/22-rdf-syntax-ns#"
   xmlns:svg="http://www.w3.org/2000/svg"
   xmlns="http://www.w3.org/2000/svg"
   version="1.1"
   width="300"
   height="54.000443"
   viewBox="0 0 300 54.000443"
   id="svg8572">
  <defs
     id="defs8574" />
  <metadata
     id="metadata8577">
    <rdf:RDF>
      <cc:Work
         rdf:about="">
        <dc:format>image/svg+xml</dc:format>
        <dc:type
           rdf:resource="http://purl.org/dc/dcmitype/StillImage" />
        <dc:title></dc:title>
      </cc:Work>
    </rdf:RDF>
  </metadata>
  <g
     transform="translate(-621.42858,-651.07623)"
     id="layer1">
    <g
       transform="matrix(1.448953,0,0,1.448953,856.61044,-758.9881)"
       id="g8485">
      <path
         d="m -155.5269,1007.3064 c -0.37875,-0.4813 -0.98125,-0.8962 -1.27375,-3.085 -0.27125,-2.04 -0.95625,-4.22875 -2.51875,-7.795 -0.89,-2.03125 -0.9625,-5.1375 -0.0225,-6.3175 0.625,-0.785 -0.29625,1.7075 1.3075,3.52 0.9425,1.06625 1.455,2.17875 1.88,4.4025 0.2975,1.55875 0.25625,3.34 0.6875,6.1913 0.34375,2.2687 0.9925,2.8062 1.35,3.4275 0.32875,0.5712 -0.95625,0.2337 -1.41,-0.3438 m -5.07875,-14.43375 c 0,0 -0.8075,-1.34875 -0.73375,-2.95625 0.0913,-2.00625 0.6975,-2.59625 0.9525,-3.415 0.255,-0.81625 -0.61125,-2.4025 -0.5425,-3.55875 0.0675,-1.15875 0.28875,-1.89625 1.12,-2.64875 0.58,-0.52625 1.12,-0.335 0.5425,0.2125 -0.36875,0.3475 -0.72875,0.7875 -0.9675,1.46875 -0.23875,0.68125 -0.11875,1.7 0.1875,2.92625 0.3075,1.22625 0.14125,1.655 -0.10125,2.2475 -0.365,0.88875 -0.61375,1.19375 -0.6825,2.11125 0.2725,-0.98625 0.98625,-1.53375 1.26125,-2.51875 0.40875,-1.46625 -0.77125,-3.1325 -0.007,-4.825 0.25,-0.55375 0.68125,-0.72 0.90875,-0.695 0.23875,0.025 0.0425,0.69375 -0.0962,0.92875 -0.5025,0.85 -0.0625,2.71875 0.03,3.6875 0.10125,1.07375 -0.3825,1.7725 -1.03625,2.57375 -1.4325,1.76375 -0.96125,3.935 -0.835,4.46125 m 0.52625,-15.26625 c 0.1925,-0.15875 0.42125,-0.32625 0.47375,0.135 0.0575,0.51125 0.16375,0.86 -0.0775,1.0925 -0.53375,0.5125 -1.19875,1.25625 -1.70125,2.9775 -0.165,-0.7725 0.0675,-3.19125 1.305,-4.205 m 4.06,6.2825 c 0.94375,-0.8375 0.6075,-1.5775 1.57875,-1.83375 0.97,-0.255 1.5325,0.46 1.635,1.7375 0.0438,0.545 0.0413,1.85125 -0.40625,1.95375 -0.835,0.18875 -1.7875,0.38875 -2.4975,0.4625 -1.47,0.15375 -1.69,-1.09375 -0.31,-2.32 m 2.75375,-4.03125 c -0.91,-0.875 -0.1825,-3.12 2.04375,-1.9925 -1.9425,0.035 -2.01875,1.14875 -2.04375,1.9925 m 4.57375,7.00125 c 0.30375,0.305 0.5875,0.8575 0.7,1.12875 0.0837,0.20125 0.075,0.31875 -0.0163,0.22375 -0.44375,-0.46 -0.89,-0.8 -1.36375,-0.96125 -0.895,-0.30875 -1.9975,-0.05 -2.885,0.24 -1.0475,0.3425 -1.18,0.28125 -0.85,0.065 2.54375,-1.6675 3.90125,-1.2075 4.415,-0.69625 m 0.46,2.3775 c -0.23875,0.40875 -0.775,0.67375 -1.695,0.98 -0.92,0.30625 -1.77125,0.20875 -2.54625,-0.1625 -0.47,-0.22375 -0.70125,-0.3375 -1.11,-0.645 -0.41,-0.3075 -0.1825,-0.68625 -0.0913,-0.78625 0.0913,-0.0987 1.47125,-0.85875 2.6725,-1.0125 0.81625,-0.10375 1.595,0.2125 2.00375,0.45 0.40875,0.24 1.005,0.76875 0.76625,1.17625 m -3.0625,2.35875 c -1.175,0.29375 -1.91125,-0.2375 -2.55,-0.9625 -0.26625,-0.30375 -0.64625,-1.26 -0.385,-1.3625 0.23875,0.545 1.41125,1.5075 2.47,1.65125 0.315,0.0425 0.73625,0.0963 1.10625,0.08 0.28875,-0.0125 0.32,0.3525 -0.64125,0.59375 m 2.7275,9.67505 c 0.21375,-0.3313 0.44625,-0.305 0.84625,-0.33 0.3275,-0.023 0.4825,-0.053 0.81875,-0.076 0.3,-0.021 0.40875,0.255 0.10125,0.5875 -0.3225,0.35 -0.3325,0.4863 -0.775,0.4863 -0.4425,0 -1.20375,-0.335 -0.99125,-0.6675 m 12.5325,-13.01505 c -0.2075,-0.57375 -1.125,-0.8625 -1.1525,-0.62 0.83375,0.34375 0.7075,0.84375 0.10375,2.08125 -0.25875,0.52625 -0.8375,0.635 -1.15375,0.20875 -0.22375,-0.3125 0.007,-0.765 -0.1925,-1.18125 -0.11125,-0.235 -0.17875,-0.21375 -0.2375,-0.4725 -0.12,-0.52875 1.10625,-0.56 1.08875,-0.71375 -0.0163,-0.13625 -1.4475,-0.1275 -2.835,0.765 -0.0712,0.04 -0.0613,-0.0437 0.195,-0.275 0.45875,-0.4125 1,-0.79375 1.56125,-0.9425 0.43,-0.11375 0.10375,-0.13875 0.20625,-0.305 0.0888,-0.1425 1.7625,-0.26375 2.37,0.60625 0.26625,0.45375 0.0462,0.84875 0.0462,0.84875 m 1.62,-10.35875 c 0.6275,1.145 0.3875,2.81625 0.435,3.2475 0.0475,0.43 0.01,0.8975 -0.2575,1.21625 0.0725,-0.59375 -0.0637,-1.13875 -0.49625,-1.39 -0.55375,-0.3225 -0.78125,-0.755 -0.525,-2.03125 0.1525,0.8425 0.4425,1.2675 0.9025,1.39625 -0.715,-1.11625 0.1675,-2.76375 -1.6975,-4.42625 0.86875,1.6875 0.13,3.16875 -0.50875,3.755 -1.1875,1.09375 -2.4625,0.14625 -2.98625,1.94375 1.20125,-0.87 1.47875,0.22625 3.35375,-1.44375 0.23625,0.3075 0.55875,0.66875 0.79,1.38125 0.36125,1.10625 0.10625,2.86125 0.1475,3.50375 0.07,1.05625 -1.41625,0.38375 -2.88,-0.03 -0.92375,-0.25875 -2.03125,-0.35625 -2.84875,-0.305 -0.9075,0.0562 -1.58125,0.425 -1.65,1.24375 -0.0513,0.62875 0.2925,2.075 0.42,2.8425 0.17125,1.0225 0.32875,2.10625 0.92875,5.2975 0.24625,-1.35375 -0.195,-2.99625 -0.0588,-3.26875 0.13625,-0.2725 0.4975,-0.14375 0.89875,0.0888 0.75,0.43125 1.67875,0.6675 1.9825,0.305 0.14,-0.16875 -0.28375,-0.27625 -0.62,-0.45875 -0.8475,-0.4575 -0.9725,-1.05625 -0.095,-0.6175 0.68625,0.3425 1.72375,0.63125 2.32875,-0.3025 0.12,-0.19375 0.23625,-0.155 0.23125,0.0263 -0.007,0.275 -0.0887,0.38875 -0.15875,0.52375 -0.1175,0.23 -0.1725,0.39 0.15625,0.18375 0.3975,-0.25 0.395,-0.46625 0.5425,-0.49 0.12875,-0.0225 0.175,0.21125 0.24,0.43375 0.1075,0.36875 0.22125,1.7875 0.0962,2.82 -0.075,0.61375 -0.1925,1.42875 -0.55625,2.67875 -0.39625,1.35625 -1.24,2.81375 -1.6475,4.68875 -0.39125,1.8137 -1.03625,4.3425 -1.63375,5.6975 -1.16,2.63 -3.15125,2.2763 -3.25,2.2713 -2.84375,-0.1 -3.0375,0.925 -4.6825,-0.1963 -0.52375,-0.3575 -0.99125,-1.025 -1.0675,-2.805 -0.0388,-0.8912 -0.9325,-1.3125 -0.71125,-1.7962 0.425,-0.9275 2.63125,0.023 3.665,0.1937 1.06,0.175 2.6725,0.071 3.4025,-0.2012 0.68875,-0.2575 0.78875,-0.4725 0.9375,-0.7663 0.34375,-0.6825 -1.03875,-0.555 -1.72375,-0.5225 -0.74875,0.034 -1.505,0.2125 -2.075,0.058 -1.0475,-0.2837 -0.395,-1.88 0.3275,-1.8275 1.04375,0.079 1.59625,0.099 2.485,-0.018 0.50125,-0.066 1.025,-0.011 1.4875,0.2988 0.315,0.2087 0.48125,0.4749 0.63875,0.7062 0.12625,0.1838 0.37875,0.4113 0.69625,-0.01 0.37375,-0.4937 0.43,-1.3912 0.32875,-1.83625 -0.0613,-0.2675 -0.2075,-0.3275 -0.29375,-0.16625 -0.23,0.435 -0.4675,0.5263 -0.79875,0.5525 -0.755,0.058 -1.015,-0.5525 -1.7825,-0.60125 -0.0887,0 -0.19,0.08 -0.2625,0.12375 -0.24625,0.1413 -0.36125,0.285 -0.86125,0.285 -0.6475,0 -0.93375,-0.49375 -1.865,-0.40875 -1.40625,0.1275 -1.755,0.48375 -2.65875,0.61255 -0.715,0.1024 -1.105,0 -1.02125,-0.2813 0.0838,-0.27875 -0.59625,-0.78375 -1.36375,-0.145 -0.58375,0.4863 -1.0075,1.0638 -0.68125,2.3688 0.205,0.8175 0.12,1.5162 -0.74875,1.4137 -0.87,-0.1025 -1.18875,-1.5125 -1.18875,-2.8937 0,-1.38005 -1.50375,-4.2013 -1.70875,-5.1713 -0.20375,-0.97 -0.185,-3.16375 1.9725,-2.51375 1.6625,0.50375 1.77125,-0.235 2.77375,0.5425 1.05,0.81125 1.52375,1.68875 1.2175,2.915 -0.11875,0.4725 -0.19625,1.13375 0.52,1.44 0.48875,0.21 1.32625,-0.1925 2.13875,0.265 0.8175,0.46 0.59375,0.70625 1.31,1.16625 0.30375,0.195 0.815,0.27375 1.2525,0.22875 0.59125,-0.06 0.95,-0.54 1.20125,-1.3625 0.19,-0.6225 0.45,-0.72375 0.89875,-1.13 0.6275,-0.56875 0.32,-1.1975 0.12875,-1.41125 -0.45,1.455 -1.85125,1.00125 -2.12375,0.285 -0.57625,-1.51125 -0.48875,-4.7975 -1.20375,-7.55625 0.34125,3.9525 -0.14875,4.375 0.12625,7.24625 0.0212,0.215 0.33625,1.11625 -0.39125,0.81625 -0.41375,-0.17 -1.02375,-0.14875 -1.55875,0.0225 -1.2025,0.3825 -1.72875,-0.64 -0.73125,-1.8675 0.34125,-0.855 0.0512,-1.9675 -0.46,-2.88625 -0.5125,-0.92 -0.19375,-2.245 0.89375,-3.22125 0.7075,-0.63375 0.46375,-1.7175 0.77375,-2.18125 0.3575,-0.5375 0.8125,-0.0788 1.22,0.8025 -0.035,-1.125 -0.21375,-2.08875 -0.895,-2.32625 -0.705,-0.24625 -1.1075,-0.3075 -2.095,-0.255 -0.955,0.0512 -2.89,0.50125 -3.48375,0.625 -0.4225,0.09 -0.6275,-0.255 -0.53375,-0.515 1.03625,-2.83625 0.0838,-3.3775 2.69375,-5.25375 1.40625,-1.00875 2.905,-1.5075 3.5675,-1.5075 1.35625,0 1.5375,1.74125 4.32125,0.9675 1.3725,-0.3825 2.37875,-0.795 2.35875,0.0175 -0.006,0.22125 -0.27875,0.6075 -0.40625,1.02625 0.115,-0.25125 0.47875,-0.4275 0.88875,-0.85125 0.59875,-0.61875 0.17,-1.48625 -0.11625,-1.58375 -0.81625,-0.2825 -1.06125,-0.004 -1.88,0.45625 -0.8175,0.46 -2.63125,1.175 -3.52625,-1.56 0.3225,0.38625 0.67,0.99125 2.1,1.16 1.0675,0.1275 1.73375,-0.80125 1.73375,-0.80125 0,0 -1.5325,0.23625 -2.06125,-0.455 -0.44375,-0.57875 -0.17125,-0.53375 0.6975,-0.4825 0.86875,0.0512 1.23625,-0.64625 1.23625,-0.64625 0,0 -1.12875,0.47 -2.34125,-0.6125 -0.1725,-0.155 -0.0625,-0.3675 0.24125,-0.29125 0.4525,0.11375 1.87375,0.39375 3.49125,-0.2675 -2.21625,-0.0288 -2.97125,-0.22125 -3.5375,-0.29 -0.845,-0.1025 -2.155,-0.29 -2.43625,-0.3675 0.0763,1.45 -1.1025,6.72875 -6.33,4.17875 3.62875,0.945 5.21375,-1.99375 5.4175,-3.755 0.0563,-0.485 -0.6,-0.48 -0.8175,0.1525 -0.2675,0.77875 -0.65875,1.45875 -1.1025,1.965 0.3025,-1.19625 -0.0312,-2.0075 -0.0775,-2.12 -0.0312,-0.0788 -0.1375,-0.0987 -0.2175,0.0425 -0.31875,0.595 -0.93,1.2075 -1.62375,1.27625 -1.12625,0.125 -1.45875,-0.19375 -2.26125,-0.26125 -1.34,-0.1125 -2.66875,0.0975 -2.79,1.615 1.17875,-2.15125 3.65875,-0.64375 4.76125,-0.54125 0.7975,0.0725 1.35375,-0.31875 1.61,-0.61 -0.89,1.96375 -3.09625,1.01625 -3.21875,0.99375 -0.40375,-0.0712 -0.8225,-0.085 -1.2375,0.0213 -1.84,0.4775 -1.8925,2.26875 -1.8925,2.26875 0,0 -0.5025,-0.6375 -0.22875,-1.7625 -0.7675,-0.8175 -0.0513,-2.1975 1.175,-2.55625 1.6775,-0.48875 2.1975,0.25625 3.42375,0.10375 1.2275,-0.155 1.1375,-1.2375 3.57375,-1.225 -0.47875,-0.10125 -1.45875,-0.0713 -2.58125,0.14 -1.61,0.30625 -5.61125,-0.4625 -7.4675,0.88625 -2.23375,1.59375 -1.16,4.8125 0.39125,5.42125 -0.405,-0.34625 -2.9875,-5.24875 2.05875,-5.75625 -0.82875,0.27625 -1.6275,0.705 -1.9375,1.35125 -0.6125,1.2775 0.175,4.23125 2.9525,5.595 -0.84,1.1025 -2.28,-0.3325 -2.68875,-0.63875 -1.285,0.34875 -2.695,-1.5075 -2.6475,-3.2175 -0.37625,1.67125 0.32,2.55125 0.9,3.045 -1.16125,0.11625 -3.48,-3.51 0.695,-6.0325 -1.97125,0.5225 -6.15625,3.42 -5.74125,9.22 0.17375,2.4375 0.41625,3.24875 0.32875,4.565 -0.0875,1.315 -0.365,2.63375 -0.01,4.22375 0.3075,1.38125 0.5525,1.91875 0.75375,2.34875 0.2025,0.43125 0.4825,0.925 0.73875,2.56 0.12625,0.8075 1.5275,7.9138 3.44125,10.8901 1.15125,1.79 2.08125,1.9462 4.79125,2.3612 2.70875,0.4125 6.77625,0.2963 9.18,-0.2138 0.2875,-0.062 2.5325,-0.2912 3.655,-2.2149 0.95375,-1.635 1.57,-4.6076 2.24625,-6.6938 0.3325,-0.9625 0.86125,-2.56505 1.19125,-3.9313 0.47,-1.9425 0.57875,-2.485 0.57875,-4.485 -0.004,0.0125 -0.0613,-1.57125 -0.0913,-2.13125 -0.0288,-0.56125 -0.0463,-1.82 0.14625,-2.54 0.17125,-0.63875 0.63625,-1.2275 0.63625,-2.21625 1.1225,-0.7425 0.93375,-3.5625 0.96875,-4.58875 0.715,-2.51375 -0.49875,-3.1675 -0.68625,-3.2675 m -3.315,-1.94875 c -0.20375,0.17875 -0.89375,-0.15375 -1.35375,0.53625 1.6475,-0.52375 2.325,0.92875 2.0025,1.90875 -0.0513,0.13375 0.0837,0.125 0.1775,0.0362 0.225,-0.21 0.5825,-0.9025 0.63125,-1.4075 0.0675,-0.715 -0.46875,-1.7975 -1.38,-2.09625 -0.565,-0.18375 -1.07375,-0.1275 -1.585,0.23125 1.22625,0 1.71125,0.61375 1.5075,0.79125"
         id="path7565"
         style="fill:#c28510;fill-opacity:1;fill-rule:nonzero;stroke:none" />
      <path
         d="m -127.45728,992.81082 0.3325,0 c 1.09375,0 1.79,-0.37625 1.79,-1.55875 0,-1.1725 -0.685,-1.81375 -1.6575,-1.81375 -0.41,0 -0.45375,0.165 -0.45375,0.4975 l -0.0113,2.875 z m -0.0113,3.3175 c 0,0.42 0.1,0.52 0.52,0.52 1.18375,0 1.78,-0.675 1.78,-1.8025 0,-1.1725 -0.74,-1.725 -1.7025,-1.725 l -0.58625,0 -0.0113,3.0075 z m -0.90625,-5.60625 c 0,-0.97375 -0.13375,-1.08375 -0.53125,-1.08375 l 0,-0.2 c 0.37625,0 0.73,0.045 1.08375,0.045 0.35375,0 0.7075,-0.045 1.0625,-0.045 1.16,0 2.31,0.465 2.31,1.925 0,0.9625 -0.67375,1.57 -1.55875,1.8025 l 0,0.0213 c 1.13875,0.255 1.725,1.05125 1.725,1.91375 0,1.77 -1.31625,2.05625 -2.47625,2.05625 -0.355,0 -0.70875,-0.0438 -1.0625,-0.0438 -0.45375,0 -0.85125,0.0438 -1.095,0.0438 l 0,-0.19875 c 0.40875,0 0.56375,-0.32 0.56375,-0.66375 l -0.0212,-5.5725 z"
         id="path7569"
         style="fill:#231f20;fill-opacity:1;fill-rule:nonzero;stroke:none" />
      <path
         d="m -121.07665,993.21982 c 0.1325,0.0225 0.31,0.0662 0.50875,0.0662 1.21625,0 2.0125,-0.73 2.0125,-1.84625 0,-1.08375 -0.685,-1.93625 -1.94625,-1.93625 -0.4425,0 -0.53125,0.0225 -0.53125,0.3775 0,0.5075 -0.0438,1.105 -0.0438,1.58125 l 0,1.7575 z m -0.885,-0.12125 c 0,-0.995 -0.0437,-2.00125 -0.0437,-2.7975 0,-0.575 -0.12125,-0.86375 -0.60875,-0.86375 l 0,-0.19875 c 0.53125,0 1.4825,-0.0662 2.06875,-0.0662 1.52625,0 2.9525,0.575 2.9525,2.29 0,1.0275 -0.91875,1.7575 -1.86875,2.00125 l 2.44375,2.84125 c 0.2325,0.2775 0.43125,0.365 0.69625,0.45375 l 0,0.19875 c -0.2875,0 -0.575,-0.0437 -0.8625,-0.0437 -0.2875,0 -0.575,0.0437 -0.8625,0.0437 l 0,-0.19875 c 0.0337,-0.0225 0.0888,-0.055 0.0888,-0.0775 0,-0.0325 -0.045,-0.12125 -0.0888,-0.17625 l -1.89125,-2.30125 c -0.265,-0.32 -0.6075,-0.575 -1.13875,-0.63 l 0,2.52125 c 0,0.3425 0.14375,0.66375 0.52,0.66375 l 0,0.19875 c -0.27625,0 -0.60875,-0.0437 -0.98375,-0.0437 -0.3325,0 -0.66375,0.0437 -0.94,0.0437 l 0,-0.19875 c 0.375,0 0.51875,-0.32125 0.51875,-0.66375 l 0,-2.99625 z"
         id="path7573"
         style="fill:#231f20;fill-opacity:1;fill-rule:nonzero;stroke:none" />
      <path
         d="m -113.13678,989.43782 c -0.43125,0 -0.5525,0.32125 -0.5525,0.66375 l -0.0563,5.99375 c 0,0.3425 0.1775,0.66375 0.50875,0.66375 l 0,0.19875 c -0.23125,0 -0.56375,-0.045 -0.94,-0.045 -0.33125,0 -0.6625,0.045 -0.88375,0.045 l 0,-0.19875 c 0.30875,0 0.48625,-0.32125 0.48625,-0.66375 l -0.055,-5.99375 c 0,-0.3425 -0.1225,-0.66375 -0.55375,-0.66375 l 0,-0.19875 c 0.34375,0 0.675,0.0438 1.00625,0.0438 0.37625,0 0.70875,-0.0438 1.04,-0.0438 l 0,0.19875 z"
         id="path7577"
         style="fill:#231f20;fill-opacity:1;fill-rule:nonzero;stroke:none" />
      <path
         d="m -110.23928,989.73657 c -0.71875,0 -0.9625,0.18875 -1.16125,0.77375 l -0.19875,0 -0.0438,-1.40375 0.055,0 c 0.17625,0.0662 0.4425,0.1325 0.6525,0.1325 0.90625,0 1.81375,0.0438 2.72,0.0438 0.90625,0 1.81375,-0.0438 2.72,-0.0438 0.21,0 0.47625,-0.0662 0.6525,-0.1325 l 0.055,0 -0.0437,1.40375 -0.19875,0 c -0.19875,-0.585 -0.4425,-0.77375 -1.16125,-0.77375 l -1.54875,0 -0.0325,6.35875 c 0,0.40875 0.16625,0.52 0.74125,0.66375 l 0,0.19875 c -0.39875,0 -0.79625,-0.045 -1.195,-0.045 -0.3975,0 -0.79625,0.045 -1.19375,0.045 l 0,-0.19875 c 0.6075,-0.14375 0.7625,-0.255 0.7625,-0.66375 l -0.0325,-6.35875 -1.54875,0 z"
         id="path7581"
         style="fill:#231f20;fill-opacity:1;fill-rule:nonzero;stroke:none" />
      <path
         d="m -101.28228,989.43782 c -0.43125,0 -0.5525,0.32125 -0.5525,0.66375 l -0.0563,5.99375 c 0,0.3425 0.1775,0.66375 0.51,0.66375 l 0,0.19875 c -0.2325,0 -0.565,-0.045 -0.94,-0.045 -0.3325,0 -0.66375,0.045 -0.885,0.045 l 0,-0.19875 c 0.31,0 0.48625,-0.32125 0.48625,-0.66375 l -0.055,-5.99375 c 0,-0.3425 -0.12125,-0.66375 -0.55375,-0.66375 l 0,-0.19875 c 0.34375,0 0.675,0.0438 1.0075,0.0438 0.375,0 0.7075,-0.0438 1.03875,-0.0438 l 0,0.19875 z"
         id="path7585"
         style="fill:#231f20;fill-opacity:1;fill-rule:nonzero;stroke:none" />
      <path
         d="m -95.166655,990.49945 c -0.2325,-0.71875 -1.02875,-1.04 -1.725,-1.04 -0.89625,0 -1.75875,0.465 -1.75875,1.47125 0,2.3775 3.90375,1.3275 3.90375,3.97 0,1.4375 -1.04,2.19 -2.4,2.19 -0.67375,0 -1.36,-0.12125 -2.04625,-0.32125 l -0.04375,-1.15 0.19875,0 c 0.255,0.785 1.14,1.1175 1.88,1.1175 0.87375,0 1.6375,-0.43125 1.6375,-1.405 0,-2.34375 -3.90375,-1.11625 -3.90375,-3.97 0,-1.60375 1.26125,-2.25625 2.70875,-2.25625 0.575,0 1.12875,0.1775 1.70375,0.155 l 0.04375,1.23875 -0.19875,0 z"
         id="path7589"
         style="fill:#231f20;fill-opacity:1;fill-rule:nonzero;stroke:none" />
      <path
         d="m -91.53978,993.15345 0,2.94125 c 0,0.3425 0.14375,0.66375 0.40875,0.66375 l 0,0.19875 c -0.165,0 -0.4975,-0.0437 -0.8725,-0.0437 -0.3325,0 -0.665,0.0437 -0.83,0.0437 l 0,-0.19875 c 0.265,0 0.43125,-0.32125 0.43125,-0.66375 l 0,-4.04625 c -0.01125,-2.5225 -0.0775,-2.655 -0.54125,-2.61125 l 0,-0.19875 c 0.275,0 0.6075,0.045 0.94,0.045 0.375,0 0.7075,-0.045 0.98375,-0.045 l 0,0.19875 c -0.37625,0 -0.4975,0.32125 -0.4975,0.665 l -0.0225,2.5975 5.07625,0 -0.0225,-2.5975 c 0,-0.34375 -0.1225,-0.665 -0.4975,-0.665 l 0,-0.19875 c 0.27625,0 0.6075,0.045 0.98375,0.045 0.3325,0 0.66375,-0.045 0.94,-0.045 l 0,0.19875 c -0.46375,-0.0437 -0.53125,0.0888 -0.54125,2.61125 l 0,4.04625 c 0,0.3425 0.165,0.66375 0.43125,0.66375 l 0,0.19875 c -0.16625,0 -0.4975,-0.0437 -0.83,-0.0437 -0.37625,0 -0.7075,0.0437 -0.8725,0.0437 l 0,-0.19875 c 0.26375,0 0.40875,-0.32125 0.40875,-0.66375 l 0,-2.94125 -5.07625,0 z"
         id="path7593"
         style="fill:#231f20;fill-opacity:1;fill-rule:nonzero;stroke:none" />
      <path
         d="m -78.855655,994.29282 2.77625,0 -1.305,-3.605 -1.47125,3.605 z m -0.17625,0.45375 -0.35375,0.9725 c -0.07875,0.21 -0.07875,0.4875 -0.07875,0.5975 0,0.19875 0.2,0.3425 0.47625,0.4425 l 0,0.19875 c -0.27625,0 -0.56375,-0.045 -0.84125,-0.045 -0.28625,0 -0.575,0.045 -0.9175,0.045 l 0,-0.19875 c 0.55375,-0.1775 0.63125,-0.4425 0.83,-0.92875 l 2.67625,-6.72375 0.1875,0 2.4,6.72375 c 0.1875,0.53 0.3425,0.72875 0.8725,0.92875 l 0.0012,0.19875 c -0.3325,0 -0.66375,-0.045 -0.995,-0.045 -0.3325,0 -0.66375,0.045 -0.99625,0.045 l 0,-0.19875 c 0.14375,-0.1 0.3875,-0.24375 0.3875,-0.37625 0,-0.17625 -0.06625,-0.32125 -0.12125,-0.475 l -0.43125,-1.16125 -3.09625,0 z"
         id="path7597"
         style="fill:#231f20;fill-opacity:1;fill-rule:nonzero;stroke:none" />
      <path
         d="m -66.337405,996.7807 c -0.69625,0.19875 -1.6375,0.31 -2.355,0.31 -2.64375,0 -4.40125,-1.615 -4.40125,-3.9925 0,-2.3775 1.7575,-3.9925 4.40125,-3.9925 0.99375,0 2.045,0.39875 2.26625,0.39875 0.04375,0 0.1,-0.045 0.155,-0.055 l 0.12125,1.1825 -0.19875,0 c -0.3875,-0.85125 -1.515,-1.1725 -2.34375,-1.1725 -1.98,0 -3.35125,1.305 -3.35125,3.63875 0,1.67 1.50375,3.63875 3.35125,3.63875 1.315,0 2.06625,-0.3325 2.59875,-1.15 l 0.1425,0.0775 -0.38625,1.11625 z"
         id="path7601"
         style="fill:#231f20;fill-opacity:1;fill-rule:nonzero;stroke:none" />
      <path
         d="m -63.119905,994.29282 2.77625,0 -1.305,-3.605 -1.47125,3.605 z m -0.17625,0.45375 -0.35375,0.9725 c -0.07875,0.21 -0.07875,0.4875 -0.07875,0.5975 0,0.19875 0.2,0.3425 0.47625,0.4425 l 0,0.19875 c -0.27625,0 -0.56375,-0.045 -0.84,-0.045 -0.28875,0 -0.575,0.045 -0.91875,0.045 l 0,-0.19875 c 0.55375,-0.1775 0.63,-0.4425 0.83,-0.92875 l 2.67625,-6.72375 0.1875,0 2.4,6.72375 c 0.1875,0.53 0.3425,0.72875 0.87375,0.92875 l 0,0.19875 c -0.33125,0 -0.66375,-0.045 -0.995,-0.045 -0.3325,0 -0.66375,0.045 -0.99625,0.045 l 0,-0.19875 c 0.14375,-0.1 0.3875,-0.24375 0.3875,-0.37625 0,-0.17625 -0.06625,-0.32125 -0.12125,-0.475 l -0.43125,-1.16125 -3.09625,0 z"
         id="path7605"
         style="fill:#231f20;fill-opacity:1;fill-rule:nonzero;stroke:none" />
      <path
         d="m -55.27953,995.9957 c 0,0.47625 0.2,0.6525 1.12875,0.6525 2.28875,0 3.78125,-0.94 3.78125,-3.38375 0,-2.28875 -1.525,-3.7825 -3.67125,-3.7825 -0.995,0 -1.1275,0.0662 -1.16125,0.94 -0.0325,0.79625 -0.0775,1.58125 -0.0775,2.3775 l 0,3.19625 z m -0.885,-5.89375 c 0,-0.34375 -0.1425,-0.66375 -0.54125,-0.66375 l 0,-0.19875 c 0.54125,0 1.06125,0.0437 1.58125,0.0437 0.52,0 1.03875,-0.0437 1.55875,-0.0437 2.3675,0 4.2475,1.5925 4.2475,4.1025 0,2.36625 -1.91375,3.61625 -4.2475,3.61625 -0.52,0 -1.03875,-0.045 -1.55875,-0.045 -0.52,0 -1.04,0.045 -1.56,0.045 l 0,-0.2 c 0.3775,0 0.52,-0.32 0.52,-0.6625 l 0,-5.99375 z"
         id="path7609"
         style="fill:#231f20;fill-opacity:1;fill-rule:nonzero;stroke:none" />
      <path
         d="m -42.882905,990.4442 -0.19875,0 c -0.11125,-0.4975 -0.52,-0.785 -1.44875,-0.785 l -1.725,0 c -0.06625,0.48625 -0.08875,1.3825 -0.08875,2.035 l 0,1.11625 1.935,0 c 0.62,0 0.83,-0.14375 0.95125,-0.56375 l 0.19875,0 c -0.01125,0.2325 -0.0325,0.48625 -0.0325,0.74125 0,0.25375 0.02125,0.50875 0.0325,0.75125 l -0.19875,0 c -0.12125,-0.40875 -0.33125,-0.5525 -0.95125,-0.5525 l -1.935,0 0,3.35125 2.30125,0 c 0.70625,0 1.01625,-0.32125 1.21625,-0.76375 l 0.17625,0.0338 -0.16625,1.205 c -0.38625,-0.0775 -0.7625,-0.1 -1.47125,-0.1 l -3.56,0 0,-0.155 c 0.4525,-0.0213 0.61875,-0.17625 0.61875,-0.6625 l 0,-3.075 c 0,-3.4275 -0.04375,-3.51625 -0.61875,-3.53875 l 0,-0.19875 4.40125,0 c 0.24375,0 0.30875,-0.0663 0.365,-0.17625 l 0.19875,0 0,1.3375 z"
         id="path7613"
         style="fill:#231f20;fill-opacity:1;fill-rule:nonzero;stroke:none" />
      <path
         d="m -36.18178,995.4427 3.0975,-6.33625 0.18625,0 0.32125,6.58 c 0.045,0.895 0.11,0.995 0.5975,1.0725 l 0,0.19875 c -0.32,0 -0.6525,-0.0438 -1.04,-0.0438 -0.32,0 -0.65125,0.0438 -0.92875,0.0438 l 0,-0.19875 c 0.465,-0.0338 0.55375,-0.35375 0.55375,-0.7525 0,-0.42 -0.0225,-0.77375 -0.03375,-0.95 l -0.22125,-3.92625 -0.04375,0 -2.7425,5.58375 -3.19625,-5.595 -0.055,0 -0.21,3.4725 c -0.0225,0.2875 -0.0225,0.79625 -0.0225,1.08375 0,0.77375 0.31,1.03875 0.68625,1.08375 l 0,0.19875 c -0.31,0 -0.63125,-0.0438 -0.9625,-0.0438 -0.32125,0 -0.63,0.0438 -0.95125,0.0438 l 0,-0.19875 c 0.58625,-0.1325 0.67375,-0.32125 0.74125,-1.2825 l 0.42,-6.37 0.2,0 3.60375,6.33625 z"
         id="path7617"
         style="fill:#231f20;fill-opacity:1;fill-rule:nonzero;stroke:none" />
      <path
         d="m -28.407405,993.39695 -1.9575,-3.1625 c -0.24375,-0.41 -0.54125,-0.66375 -0.8625,-0.79625 l 0,-0.19875 c 0.3425,0 0.685,0.0437 1.02875,0.0437 0.3425,0 0.68625,-0.0437 1.02875,-0.0437 l 0,0.19875 c -0.255,0.055 -0.39875,0.155 -0.39875,0.35375 0,0.0662 0.04375,0.2325 0.14375,0.40875 l 1.60375,2.69875 1.6475,-2.6325 c 0.1775,-0.265 0.255,-0.46375 0.255,-0.54125 0,-0.22125 -0.18875,-0.26625 -0.36625,-0.2875 l 0,-0.19875 c 0.28875,0 0.575,0.0437 0.86375,0.0437 0.2875,0 0.575,-0.0437 0.8625,-0.0437 l 0,0.19875 c -0.55375,0.19875 -1.50375,1.4375 -1.925,2.10125 l -1.03875,1.6475 0,2.90875 c 0,0.3425 0.14375,0.6625 0.54125,0.6625 l 0,0.19875 c -0.2975,0 -0.63,-0.0438 -1.00625,-0.0438 -0.33125,0 -0.66375,0.0438 -0.98375,0.0438 l 0,-0.19875 c 0.42,0 0.56375,-0.32 0.56375,-0.6625 l 0,-2.69875 z"
         id="path7621"
         style="fill:#231f20;fill-opacity:1;fill-rule:nonzero;stroke:none" />
      <path
         d="m -125.3539,1008.8198 c 2.0675,0 2.94125,-1.615 2.94125,-3.6375 0,-2.025 -0.87375,-3.6388 -2.94125,-3.6388 -2.06875,0 -2.9425,1.6138 -2.9425,3.6388 0,2.0225 0.87375,3.6375 2.9425,3.6375 m 0,-7.63 c 2.3,0 3.99125,1.725 3.99125,3.9925 0,2.2662 -1.69125,3.9912 -3.99125,3.9912 -2.3,0 -3.9925,-1.725 -3.9925,-3.9912 0,-2.2675 1.6925,-3.9925 3.9925,-3.9925"
         id="path7625"
         style="fill:#231f20;fill-opacity:1;fill-rule:nonzero;stroke:none" />
      <path
         d="m -118.54216,1004.8938 1.47125,0 c 0.61875,0 0.82875,-0.1437 0.95,-0.6087 l 0.2,0 c -0.0112,0.2775 -0.0337,0.5312 -0.0337,0.785 0,0.255 0.0225,0.51 0.055,0.7975 l -0.19875,0 c -0.14375,-0.4538 -0.35375,-0.5975 -0.9725,-0.5975 l -1.47125,0 0,2.92 c 0,0.3425 0.14375,0.6637 0.52,0.6637 l 0,0.1988 c -0.27625,0 -0.60875,-0.045 -0.98375,-0.045 -0.3325,0 -0.66375,0.045 -0.94,0.045 l 0,-0.1988 c 0.375,0 0.51875,-0.3212 0.51875,-0.6637 l 0,-3.4288 c 0,-1.7912 -0.12125,-2.6875 -0.19875,-3.0187 -0.0225,-0.1 -0.12125,-0.155 -0.52,-0.1775 l 0,-0.1988 2.93125,0 c 0.64125,0 1.1275,-0.044 1.50375,-0.044 l 0,1.1387 -0.19875,0 c -0.045,-0.4425 -0.2325,-0.7187 -0.79625,-0.7187 l -1.83625,0 0,3.1512 z"
         id="path7629"
         style="fill:#231f20;fill-opacity:1;fill-rule:nonzero;stroke:none" />
      <path
         d="m -109.35241,1004.8938 1.47125,0 c 0.61875,0 0.82875,-0.1437 0.95,-0.6087 l 0.19875,0 c -0.01,0.2775 -0.0325,0.5312 -0.0325,0.785 0,0.255 0.0225,0.51 0.055,0.7975 l -0.19875,0 c -0.14375,-0.4538 -0.35375,-0.5975 -0.9725,-0.5975 l -1.47125,0 0,2.92 c 0,0.3425 0.14375,0.6637 0.52,0.6637 l 0,0.1988 c -0.27625,0 -0.60875,-0.045 -0.985,-0.045 -0.33125,0 -0.6625,0.045 -0.94,0.045 l 0,-0.1988 c 0.37625,0 0.52,-0.3212 0.52,-0.6637 l 0,-3.4288 c 0,-1.7912 -0.12125,-2.6875 -0.19875,-3.0187 -0.0225,-0.1 -0.1225,-0.155 -0.52,-0.1775 l 0,-0.1988 2.93125,0 c 0.64,0 1.1275,-0.044 1.50375,-0.044 l 0,1.1387 -0.19875,0 c -0.045,-0.4425 -0.2325,-0.7187 -0.7975,-0.7187 l -1.835,0 0,3.1512 z"
         id="path7633"
         style="fill:#231f20;fill-opacity:1;fill-rule:nonzero;stroke:none" />
      <path
         d="m -102.57378,1001.5211 c -0.43125,0 -0.5525,0.3212 -0.5525,0.6638 l -0.055,5.9937 c 0,0.3425 0.17625,0.6637 0.5075,0.6637 l 0,0.1988 c -0.2325,0 -0.56375,-0.045 -0.93875,-0.045 -0.3325,0 -0.66375,0.045 -0.885,0.045 l 0,-0.1988 c 0.30875,0 0.48625,-0.3212 0.48625,-0.6637 l -0.055,-5.9937 c 0,-0.3426 -0.1225,-0.6638 -0.55375,-0.6638 l 0,-0.1987 c 0.34375,0 0.675,0.044 1.0075,0.044 0.375,0 0.70625,-0.044 1.03875,-0.044 l 0,0.1987 z"
         id="path7637"
         style="fill:#231f20;fill-opacity:1;fill-rule:nonzero;stroke:none" />
      <path
         d="m -100.22941,1005.4137 c 0,-3.715 -0.0438,-3.8038 -0.64125,-3.8925 l 0,-0.1988 c 0.3975,0 0.73,0.044 1.06125,0.044 0.37625,0 0.7075,-0.044 0.985,-0.044 l 0,0.1988 c -0.37625,0 -0.52,0.3212 -0.52,0.6637 0,0.53 -0.06625,2.2113 -0.06625,3.2288 0,1.0612 0.06625,2.345 0.06625,3.2075 l 2.18875,0 c 0.84125,0 1.18375,-0.2988 1.47125,-0.9075 l 0.1775,0.056 -0.2775,1.3263 c -0.375,-0.1 -1.68,-0.1 -2.49875,-0.1 -0.82875,0 -1.6475,0.045 -2.46625,0.045 l 0,-0.1988 c 0.37625,0 0.52,-0.3212 0.52,-0.6637 l 0,-2.765 z"
         id="path7641"
         style="fill:#231f20;fill-opacity:1;fill-rule:nonzero;stroke:none" />
      <path
         d="m -89.558155,1007.5263 3.09625,-6.3362 0.1875,0 0.32125,6.5799 c 0.045,0.895 0.11,0.9938 0.5975,1.0725 l 0,0.1988 c -0.32,0 -0.6525,-0.045 -1.04,-0.045 -0.32,0 -0.65125,0.045 -0.92875,0.045 l 0,-0.1988 c 0.46375,-0.034 0.5525,-0.3537 0.5525,-0.7524 0,-0.4201 -0.02125,-0.7738 -0.0325,-0.9513 l -0.22125,-3.9263 -0.04375,0 -2.74375,5.585 -3.195,-5.595 -0.055,0 -0.21,3.4713 c -0.0225,0.2887 -0.0225,0.7975 -0.0225,1.0838 0,0.775 0.31,1.0399 0.68625,1.0849 l 0,0.1988 c -0.31125,0 -0.63125,-0.045 -0.9625,-0.045 -0.32125,0 -0.63,0.045 -0.95125,0.045 l 0,-0.1988 c 0.58625,-0.1337 0.67375,-0.3212 0.74125,-1.2837 l 0.42,-6.3687 0.19875,0 3.605,6.3362 z"
         id="path7645"
         style="fill:#231f20;fill-opacity:1;fill-rule:nonzero;stroke:none" />
      <path
         d="m -79.28453,1006.3762 2.77625,0 -1.305,-3.605 -1.47125,3.605 z m -0.17625,0.4538 -0.355,0.9725 c -0.07625,0.21 -0.07625,0.4875 -0.07625,0.5974 0,0.1988 0.19875,0.3426 0.475,0.4425 l 0,0.1988 c -0.27625,0 -0.56375,-0.045 -0.84125,-0.045 -0.2875,0 -0.575,0.045 -0.9175,0.045 l 0,-0.1988 c 0.55375,-0.1774 0.63,-0.4425 0.83,-0.9287 l 2.67625,-6.7237 0.1875,0 2.4,6.7237 c 0.1875,0.53 0.3425,0.7288 0.87375,0.9287 l 0,0.1988 c -0.3325,0 -0.66375,-0.045 -0.99625,-0.045 -0.33125,0 -0.6625,0.045 -0.995,0.045 l 0,-0.1988 c 0.14375,-0.1 0.3875,-0.2437 0.3875,-0.3762 0,-0.1762 -0.06625,-0.3213 -0.12125,-0.475 l -0.4325,-1.1612 -3.095,0 z"
         id="path7649"
         style="fill:#231f20;fill-opacity:1;fill-rule:nonzero;stroke:none" />
      <path
         d="m -72.339905,1001.3222 0.2425,0 c 0.355,0.3762 0.675,0.7962 1.04,1.1725 l 4.745,4.91 0,-3.65 c 0,-1.935 -0.13375,-2.09 -0.8525,-2.2338 l 0,-0.1987 c 0.43125,0 0.7525,0.044 1.0725,0.044 0.32125,0 0.64125,-0.044 0.9625,-0.044 l 0,0.1987 c -0.5975,0.1438 -0.73,0.2988 -0.73,0.8625 l 0,6.6575 -0.24375,0 -5.68375,-5.8725 0,4.2138 c 0,1.1612 0.13375,1.3162 0.775,1.46 l 0,0.1987 c -0.36625,0 -0.68625,-0.044 -1.0075,-0.044 -0.42,0 -0.74,0.044 -1.01625,0.044 l 0,-0.1987 c 0.56375,-0.1438 0.69625,-0.2988 0.69625,-0.8625 l 0,-6.6575 z"
         id="path7653"
         style="fill:#231f20;fill-opacity:1;fill-rule:nonzero;stroke:none" />
      <path
         d="m -62.36553,1008.0789 c 0,0.475 0.2,0.6525 1.12875,0.6525 2.28875,0 3.78125,-0.94 3.78125,-3.3838 0,-2.2887 -1.525,-3.7824 -3.67125,-3.7824 -0.995,0 -1.1275,0.066 -1.16125,0.9399 -0.0325,0.7963 -0.0775,1.5813 -0.0775,2.3775 l 0,3.1963 z m -0.885,-5.8937 c 0,-0.3438 -0.14375,-0.6638 -0.54125,-0.6638 l 0,-0.1988 c 0.54125,0 1.06125,0.044 1.58125,0.044 0.52,0 1.03875,-0.044 1.55875,-0.044 2.3675,0 4.24625,1.5925 4.24625,4.1026 0,2.3662 -1.9125,3.6162 -4.24625,3.6162 -0.52,0 -1.03875,-0.045 -1.55875,-0.045 -0.52,0 -1.04,0.045 -1.56,0.045 l 0,-0.2 c 0.37625,0 0.52,-0.32 0.52,-0.6625 l 0,-5.9937 z"
         id="path7657"
         style="fill:#231f20;fill-opacity:1;fill-rule:nonzero;stroke:none" />
      <path
         d="m -52.124905,1001.8198 c -0.71875,0 -0.9625,0.1888 -1.16125,0.7737 l -0.2,0 -0.04375,-1.4037 0.05625,0 c 0.17625,0.066 0.44125,0.1325 0.6525,0.1325 0.90625,0 1.8125,0.044 2.72,0.044 0.90625,0 1.81375,-0.044 2.72,-0.044 0.21,0 0.475,-0.066 0.6525,-0.1325 l 0.055,0 -0.04375,1.4037 -0.19875,0 c -0.2,-0.5849 -0.4425,-0.7737 -1.16125,-0.7737 l -1.54875,0 -0.03375,6.3587 c 0,0.4088 0.16625,0.52 0.7425,0.6638 l 0,0.1988 c -0.39875,0 -0.7975,-0.045 -1.195,-0.045 -0.39875,0 -0.79625,0.045 -1.19375,0.045 l 0,-0.1988 c 0.6075,-0.1438 0.7625,-0.255 0.7625,-0.6638 l -0.03375,-6.3587 -1.5475,0 z"
         id="path7661"
         style="fill:#231f20;fill-opacity:1;fill-rule:nonzero;stroke:none" />
      <path
         d="m -40.502405,1002.5278 -0.2,0 c -0.11,-0.4975 -0.51875,-0.785 -1.44875,-0.785 l -1.72375,0 c -0.06625,0.4862 -0.08875,1.3825 -0.08875,2.0337 l 0,1.1175 1.935,0 c 0.61875,0 0.83,-0.1437 0.95125,-0.5637 l 0.19875,0 c -0.01125,0.2325 -0.0325,0.4862 -0.0325,0.74 0,0.255 0.02125,0.51 0.0325,0.7525 l -0.19875,0 c -0.12125,-0.4088 -0.3325,-0.5525 -0.95125,-0.5525 l -1.935,0 0,3.35 2.3,0 c 0.7075,0 1.01625,-0.32 1.2175,-0.7625 l 0.17625,0.033 -0.16625,1.2062 c -0.3875,-0.077 -0.7625,-0.1 -1.47125,-0.1 l -3.56,0 0,-0.155 c 0.4525,-0.021 0.61875,-0.1762 0.61875,-0.6625 l 0,-3.075 c 0,-3.4287 -0.04375,-3.5162 -0.61875,-3.5387 l 0,-0.1988 4.40125,0 c 0.2425,0 0.30875,-0.066 0.36375,-0.1775 l 0.2,0 0,1.3388 z"
         id="path7665"
         style="fill:#231f20;fill-opacity:1;fill-rule:nonzero;stroke:none" />
      <path
         d="m -37.981155,1005.4137 c 0,-3.715 -0.04375,-3.8038 -0.64125,-3.8925 l 0,-0.1988 c 0.3975,0 0.72875,0.044 1.06125,0.044 0.37625,0 0.70875,-0.044 0.98375,-0.044 l 0,0.1988 c -0.37625,0 -0.52,0.3212 -0.52,0.6637 0,0.53 -0.06625,2.2113 -0.06625,3.2288 0,1.0612 0.06625,2.345 0.06625,3.2075 l 2.19,0 c 0.84125,0 1.18375,-0.2988 1.47125,-0.9075 l 0.1775,0.056 -0.2775,1.3263 c -0.37625,-0.1 -1.68125,-0.1 -2.5,-0.1 -0.82875,0 -1.6475,0.045 -2.465,0.045 l 0,-0.1988 c 0.375,0 0.52,-0.3212 0.52,-0.6637 l 0,-2.765 z"
         id="path7669"
         style="fill:#231f20;fill-opacity:1;fill-rule:nonzero;stroke:none" />
      <path
         d="m -27.21078,1002.5278 -0.19875,0 c -0.11125,-0.4975 -0.52,-0.785 -1.44875,-0.785 l -1.725,0 c -0.06625,0.4862 -0.08875,1.3825 -0.08875,2.0337 l 0,1.1175 1.935,0 c 0.62,0 0.83,-0.1437 0.95125,-0.5637 l 0.19875,0 c -0.01125,0.2325 -0.0325,0.4862 -0.0325,0.74 0,0.255 0.02125,0.51 0.0325,0.7525 l -0.19875,0 c -0.12125,-0.4088 -0.33125,-0.5525 -0.95125,-0.5525 l -1.935,0 0,3.35 2.30125,0 c 0.70625,0 1.01625,-0.32 1.21625,-0.7625 l 0.17625,0.033 -0.16625,1.2062 c -0.38625,-0.077 -0.7625,-0.1 -1.47125,-0.1 l -3.56,0 0,-0.155 c 0.4525,-0.021 0.61875,-0.1762 0.61875,-0.6625 l 0,-3.075 c 0,-3.4287 -0.04375,-3.5162 -0.61875,-3.5387 l 0,-0.1988 4.40125,0 c 0.24375,0 0.30875,-0.066 0.365,-0.1775 l 0.19875,0 0,1.3388 z"
         id="path7673"
         style="fill:#231f20;fill-opacity:1;fill-rule:nonzero;stroke:none" />
      <path
         d="m -22.201155,1009.1742 -2.8525,-7.1337 c -0.1775,-0.4413 -0.24375,-0.475 -0.55375,-0.5188 l 0,-0.2 c 0.3425,0 0.685,0.045 1.02875,0.045 0.34375,0 0.685,-0.045 1.02875,-0.045 l 0,0.2 c -0.11125,0.021 -0.41,0.089 -0.41,0.1988 0,0.066 0.03375,0.1875 0.1225,0.4425 l 1.97875,5.6062 2.0125,-5.0312 c 0.1225,-0.3213 0.14375,-0.6638 0.14375,-0.73 0,-0.3425 -0.09875,-0.4313 -0.475,-0.4863 l 0,-0.2 c 0.32125,0 0.64125,0.045 0.9625,0.045 0.32,0 0.64,-0.045 0.9725,-0.045 l 0,0.2 c -0.3875,0.044 -0.50875,0.1988 -0.685,0.6187 l -2.975,7.0338 -0.29875,0 z"
         id="path7677"
         style="fill:#231f20;fill-opacity:1;fill-rule:nonzero;stroke:none" />
      <path
         d="m -14.891905,1001.5211 c -0.43125,0 -0.5525,0.3212 -0.5525,0.6638 l -0.05625,5.9937 c 0,0.3425 0.1775,0.6637 0.51,0.6637 l 0,0.1988 c -0.2325,0 -0.565,-0.045 -0.94,-0.045 -0.3325,0 -0.66375,0.045 -0.885,0.045 l 0,-0.1988 c 0.30875,0 0.48625,-0.3212 0.48625,-0.6637 l -0.055,-5.9937 c 0,-0.3426 -0.1225,-0.6638 -0.55375,-0.6638 l 0,-0.1987 c 0.34375,0 0.675,0.044 1.0075,0.044 0.375,0 0.7075,-0.044 1.03875,-0.044 l 0,0.1987 z"
         id="path7681"
         style="fill:#231f20;fill-opacity:1;fill-rule:nonzero;stroke:none" />
      <path
         d="m -8.79828,1002.5828 c -0.2325,-0.7187 -1.02875,-1.04 -1.725,-1.04 -0.89625,0 -1.75875,0.465 -1.75875,1.4712 0,2.3776 3.90375,1.3275 3.90375,3.9701 0,1.4375 -1.04,2.1899 -2.4,2.1899 -0.675,0 -1.36,-0.1212 -2.04625,-0.3212 l -0.04375,-1.15 0.19875,0 c 0.255,0.785 1.14,1.1175 1.88,1.1175 0.87375,0 1.6375,-0.4313 1.6375,-1.405 0,-2.345 -3.90375,-1.1163 -3.90375,-3.97 0,-1.6038 1.26125,-2.2562 2.70875,-2.2562 0.575,0 1.1275,0.1775 1.70375,0.155 l 0.04375,1.2387 -0.19875,0 z"
         id="path7685"
         style="fill:#231f20;fill-opacity:1;fill-rule:nonzero;stroke:none" />
      <path
         d="m -4.507655,1001.5211 c -0.43125,0 -0.55375,0.3212 -0.55375,0.6638 l -0.05375,5.9937 c 0,0.3425 0.17625,0.6637 0.5075,0.6637 l 0,0.1988 c -0.23125,0 -0.56375,-0.045 -0.94,-0.045 -0.33125,0 -0.66375,0.045 -0.885,0.045 l 0,-0.1988 c 0.31,0 0.4875,-0.3212 0.4875,-0.6637 l -0.05625,-5.9937 c 0,-0.3426 -0.12125,-0.6638 -0.5525,-0.6638 l 0,-0.1987 c 0.3425,0 0.675,0.044 1.00625,0.044 0.37625,0 0.70875,-0.044 1.04,-0.044 l 0,0.1987 z"
         id="path7689"
         style="fill:#231f20;fill-opacity:1;fill-rule:nonzero;stroke:none" />
      <path
         d="m 1.043345,1008.8198 c 2.06875,0 2.9425,-1.615 2.9425,-3.6375 0,-2.025 -0.87375,-3.6388 -2.9425,-3.6388 -2.0675,0 -2.94125,1.6138 -2.94125,3.6388 0,2.0225 0.87375,3.6375 2.94125,3.6375 m 0,-7.63 c 2.3,0 3.9925,1.725 3.9925,3.9925 0,2.2662 -1.6925,3.9912 -3.9925,3.9912 -2.3,0 -3.99125,-1.725 -3.99125,-3.9912 0,-2.2675 1.69125,-3.9925 3.99125,-3.9925"
         id="path7693"
         style="fill:#231f20;fill-opacity:1;fill-rule:nonzero;stroke:none" />
      <path
         d="m 7.04772,1001.3222 0.24375,0 c 0.35375,0.3762 0.67375,0.7962 1.03875,1.1725 l 4.745,4.91 0,-3.65 c 0,-1.935 -0.13375,-2.09 -0.8525,-2.2338 l 0,-0.1987 c 0.43125,0 0.7525,0.044 1.07375,0.044 0.32,0 0.64125,-0.044 0.9625,-0.044 l 0,0.1987 c -0.59875,0.1438 -0.73125,0.2988 -0.73125,0.8625 l 0,6.6575 -0.2425,0 -5.68375,-5.8725 0,4.2138 c 0,1.1612 0.1325,1.3162 0.77375,1.46 l 0,0.1987 c -0.365,0 -0.68625,-0.044 -1.00625,-0.044 -0.42,0 -0.74125,0.044 -1.0175,0.044 l 0,-0.1987 c 0.56375,-0.1438 0.69625,-0.2988 0.69625,-0.8625 l 0,-6.6575 z"
         id="path7697"
         style="fill:#231f20;fill-opacity:1;fill-rule:nonzero;stroke:none" />
      <path
         d="m 19.234345,1006.3762 2.77625,0 -1.305,-3.605 -1.47125,3.605 z m -0.17625,0.4538 -0.355,0.9725 c -0.07625,0.21 -0.07625,0.4875 -0.07625,0.5974 0,0.1988 0.19875,0.3426 0.475,0.4425 l 0,0.1988 c -0.27625,0 -0.56375,-0.045 -0.84,-0.045 -0.2875,0 -0.575,0.045 -0.9175,0.045 l 0,-0.1988 c 0.5525,-0.1774 0.63,-0.4425 0.82875,-0.9287 l 2.67625,-6.7237 0.1875,0 2.4,6.7237 c 0.1875,0.53 0.3425,0.7288 0.87375,0.9287 l 0,0.1988 c -0.3325,0 -0.66375,-0.045 -0.995,-0.045 -0.3325,0 -0.66375,0.045 -0.99625,0.045 l 0,-0.1988 c 0.14375,-0.1 0.3875,-0.2437 0.3875,-0.3762 0,-0.1762 -0.06625,-0.3213 -0.12125,-0.475 l -0.43125,-1.1612 -3.09625,0 z"
         id="path7701"
         style="fill:#231f20;fill-opacity:1;fill-rule:nonzero;stroke:none" />
      <path
         d="m 27.240595,1005.3031 c 0.1325,0.023 0.31,0.066 0.50875,0.066 1.21625,0 2.0125,-0.73 2.0125,-1.8462 0,-1.0838 -0.68625,-1.9362 -1.94625,-1.9362 -0.4425,0 -0.53,0.024 -0.53,0.3774 0,0.5076 -0.045,1.105 -0.045,1.58 l 0,1.7588 z m -0.885,-0.1213 c 0,-0.995 -0.04375,-2.0012 -0.04375,-2.7975 0,-0.5762 -0.1225,-0.8637 -0.60875,-0.8637 l 0,-0.1988 c 0.53125,0 1.48125,-0.066 2.0675,-0.066 1.5275,0 2.95375,0.575 2.95375,2.2887 0,1.0288 -0.9175,1.7588 -1.86875,2.0025 l 2.44375,2.8413 c 0.2325,0.2775 0.43125,0.365 0.6975,0.4538 l 0,0.1987 c -0.28875,0 -0.57625,-0.044 -0.86375,-0.044 -0.2875,0 -0.575,0.044 -0.8625,0.044 l 0,-0.1987 c 0.03375,-0.023 0.08875,-0.055 0.08875,-0.078 0,-0.033 -0.045,-0.1212 -0.08875,-0.1774 l -1.89125,-2.3001 c -0.265,-0.3199 -0.60875,-0.5749 -1.13875,-0.63 l 0,2.5225 c 0,0.3413 0.14375,0.6626 0.52,0.6626 l 0,0.1987 c -0.27625,0 -0.6075,-0.044 -0.98375,-0.044 -0.3325,0 -0.66375,0.044 -0.94125,0.044 l 0,-0.1987 c 0.3775,0 0.52,-0.3213 0.52,-0.6626 l 0,-2.9975 z"
         id="path7705"
         style="fill:#231f20;fill-opacity:1;fill-rule:nonzero;stroke:none" />
      <path
         d="m 33.45472,1001.8198 c -0.71875,0 -0.96125,0.1888 -1.16,0.7737 l -0.2,0 -0.04375,-1.4037 0.055,0 c 0.1775,0.066 0.4425,0.1325 0.6525,0.1325 0.90625,0 1.81375,0.044 2.72125,0.044 0.90625,0 1.8125,-0.044 2.72,-0.044 0.21,0 0.475,-0.066 0.6525,-0.1325 l 0.055,0 -0.045,1.4037 -0.19875,0 c -0.19875,-0.5849 -0.44125,-0.7737 -1.16,-0.7737 l -1.55,0 -0.0325,6.3587 c 0,0.4088 0.16625,0.52 0.74125,0.6638 l 0,0.1988 c -0.3975,0 -0.79625,-0.045 -1.19375,-0.045 -0.39875,0 -0.79625,0.045 -1.195,0.045 l 0,-0.1988 c 0.60875,-0.1438 0.7625,-0.255 0.7625,-0.6638 l -0.0325,-6.3587 -1.54875,0 z"
         id="path7709"
         style="fill:#231f20;fill-opacity:1;fill-rule:nonzero;stroke:none" />
      <path
         d="m 44.31447,1002.5828 c -0.23125,-0.7187 -1.0275,-1.04 -1.725,-1.04 -0.89625,0 -1.7575,0.465 -1.7575,1.4712 0,2.3776 3.9025,1.3275 3.9025,3.9701 0,1.4375 -1.03875,2.1899 -2.39875,2.1899 -0.675,0 -1.36,-0.1212 -2.04625,-0.3212 l -0.04375,-1.15 0.19875,0 c 0.25375,0.785 1.13875,1.1175 1.88,1.1175 0.87375,0 1.63625,-0.4313 1.63625,-1.405 0,-2.345 -3.90375,-1.1163 -3.90375,-3.97 0,-1.6038 1.26125,-2.2562 2.71,-2.2562 0.575,0 1.1275,0.1775 1.7025,0.155 l 0.045,1.2387 -0.2,0 z"
         id="path7713"
         style="fill:#231f20;fill-opacity:1;fill-rule:nonzero;stroke:none" />
    </g>
  </g>
</svg>
