<?xml version="1.0" encoding="utf-8"?>
<!-- Generator: Adobe Illustrator 18.1.1, SVG Export Plug-In . SVG Version: 6.00 Build 0)  -->
<svg version="1.1" id="Layer_1" xmlns="http://www.w3.org/2000/svg" xmlns:xlink="http://www.w3.org/1999/xlink" x="0px" y="0px"
	 viewBox="-36.4 -20.3 1096.8 1723.8" enable-background="new -36.4 -20.3 1096.8 1723.8" xml:space="preserve">
<circle opacity="0.75" fill="none" stroke="#32C7FF" stroke-miterlimit="10" enable-background="new    " cx="892" cy="814.8" r="135.5"/>
<circle opacity="0.75" fill="none" stroke="#45C1E5" stroke-miterlimit="10" enable-background="new    " cx="604.7" cy="1552" r="135.5"/>
<circle opacity="0.75" fill="none" stroke="#75FFCE" stroke-miterlimit="10" enable-background="new    " cx="604" cy="1068.4" r="135.5"/>
<circle opacity="0.75" fill="none" stroke="#0F647F" stroke-miterlimit="10" enable-background="new    " cx="606" cy="567.7" r="135.5"/>
<circle opacity="0.75" fill="none" stroke="#2EB284" stroke-miterlimit="10" enable-background="new    " cx="891.3" cy="309.5" r="135.5"/>
<circle opacity="0.75" fill="none" stroke="#133460" stroke-miterlimit="10" enable-background="new    " cx="891.5" cy="1314.1" r="135.5"/>
<line fill="none" stroke="#CCCCCC" stroke-miterlimit="10" x1="723.1" y1="1477.9" x2="723.1" y2="1477.9"/>
<line fill="none" stroke="#CCCCCC" stroke-miterlimit="10" x1="721.3" y1="1481.5" x2="790.7" y2="1404.9"/>
<line fill="none" stroke="#CCCCCC" stroke-miterlimit="10" x1="792.5" y1="1218" x2="721.3" y2="1136.3"/>
<line fill="none" stroke="#CCCCCC" stroke-miterlimit="10" x1="721.3" y1="1000.4" x2="797.9" y2="915.8"/>
<line fill="none" stroke="#CCCCCC" stroke-miterlimit="10" x1="723.1" y1="636" x2="799" y2="717.2"/>
<line fill="none" stroke="#CCCCCC" stroke-miterlimit="10" x1="723.1" y1="499.4" x2="801.5" y2="414.1"/>
<circle opacity="0.75" fill="none" stroke="#45C1E5" stroke-miterlimit="10" enable-background="new    " cx="604.7" cy="59.2" r="135.5"/>
<line fill="none" stroke="#CCCCCC" stroke-miterlimit="10" x1="723.1" y1="128.2" x2="797.9" y2="208.1"/>
<text transform="matrix(1.0589 0 0 1 483.8535 593.2971)"><tspan x="0" y="0" font-family="'CabinSketch-Regular'" font-size="33.999">2/28, 3/7, 3/14,</tspan><tspan x="65.1" y="57.6" font-family="'CabinSketch-Regular'" font-size="48">2015</tspan></text>
<text transform="matrix(1 0 0 1 776.8258 787.4388)" font-family="'CabinSketch-Regular'" font-size="48">risd library</text>
<text transform="matrix(1 0 0 1 799.1406 857.508)"><tspan x="0" y="0" font-family="'CabinSketch-Regular'" font-size="24">15 westminster st</tspan><tspan x="20.4" y="28.8" font-family="'CabinSketch-Regular'" font-size="24">providence, ri</tspan><tspan x="56.4" y="57.6" font-family="'CabinSketch-Regular'" font-size="24">02903</tspan></text>
</svg>
