<?xml version="1.0" encoding="utf-8"?>
<!-- Generator: Adobe Illustrator 18.1.1, SVG Export Plug-In . SVG Version: 6.00 Build 0)  -->
<svg version="1.1" id="Layer_1" xmlns="http://www.w3.org/2000/svg" xmlns:xlink="http://www.w3.org/1999/xlink" x="0px" y="0px"
	 viewBox="0 0 79.5 81.7" enable-background="new 0 0 79.5 81.7" xml:space="preserve">
<path fill="#666666" d="M59,80.3H22.7c-6.6,0-12-5.4-12-12V47.8c0-6.6,5.4-12,12-12H59c6.6,0,12,5.4,12,12v20.6
	C71,74.9,65.6,80.3,59,80.3z"/>
<path fill="#666666" d="M53.9,3.4L11.6,24.5c-2.7,1.4-3.9,4.7-2.5,7.5l0.6,1.3c1.4,2.7,4.7,3.9,7.5,2.5l42.4-21.2
	c2.7-1.4,3.9-4.7,2.5-7.5l-0.6-1.3C60,3.1,56.7,2,53.9,3.4z"/>
<polygon fill="#F2F2F2" points="11.2,63 71,63 71,69 11.2,69 "/>
</svg>
