<?xml version="1.0" encoding="utf-8"?>
<!-- Generator: Adobe Illustrator 18.1.1, SVG Export Plug-In . SVG Version: 6.00 Build 0)  -->
<svg version="1.1" id="Layer_1" xmlns="http://www.w3.org/2000/svg" xmlns:xlink="http://www.w3.org/1999/xlink" x="0px" y="0px"
	 viewBox="-484 -880.2 918.8 1500" enable-background="new -484 -880.2 918.8 1500" xml:space="preserve">
<circle opacity="0.75" fill="none" stroke="#32C7FF" stroke-miterlimit="10" enable-background="new    " cx="270" cy="-144.8" r="120.4"/>
<circle opacity="0.75" fill="none" stroke="#45C1E5" stroke-miterlimit="10" enable-background="new    " cx="14.6" cy="510.4" r="120.4"/>
<circle opacity="0.75" fill="none" stroke="#75FFCE" stroke-miterlimit="10" enable-background="new    " cx="14" cy="80.6" r="120.4"/>
<circle opacity="0.75" fill="none" stroke="#0F647F" stroke-miterlimit="10" enable-background="new    " cx="15.8" cy="-364.4" r="120.4"/>
<circle opacity="0.75" fill="none" stroke="#2EB284" stroke-miterlimit="10" enable-background="new    " cx="269.3" cy="-593.8" r="120.4"/>
<circle opacity="0.75" fill="none" stroke="#133460" stroke-miterlimit="10" enable-background="new    " cx="269.5" cy="298.9" r="120.4"/>
<line fill="none" stroke="#CCCCCC" stroke-miterlimit="10" x1="119.9" y1="444.5" x2="119.9" y2="444.5"/>
<line fill="none" stroke="#CCCCCC" stroke-miterlimit="10" x1="118.3" y1="447.7" x2="179.9" y2="379.6"/>
<line fill="none" stroke="#CCCCCC" stroke-miterlimit="10" x1="181.5" y1="213.5" x2="118.3" y2="140.9"/>
<line fill="none" stroke="#CCCCCC" stroke-miterlimit="10" x1="118.3" y1="20.2" x2="186.3" y2="-55"/>
<line fill="none" stroke="#CCCCCC" stroke-miterlimit="10" x1="119.9" y1="-303.7" x2="187.3" y2="-231.5"/>
<line fill="none" stroke="#CCCCCC" stroke-miterlimit="10" x1="119.9" y1="-425.1" x2="189.5" y2="-500.9"/>
<circle opacity="0.75" fill="none" stroke="#45C1E5" stroke-miterlimit="10" enable-background="new    " cx="14.6" cy="-816.3" r="120.4"/>
<line fill="none" stroke="#CCCCCC" stroke-miterlimit="10" x1="119.8" y1="-755" x2="186.3" y2="-683.9"/>
<text transform="matrix(1.0589 0 0 1 -89.9064 -341.1179)" font-family="'CabinSketch-Regular'" font-size="30.2143">2/28, 3/7, 3/14,</text>
<text transform="matrix(1.0589 0 0 1 -65.6313 -289.9146)" font-family="'CabinSketch-Regular'" font-size="42.6567">7:00pm</text>
<text transform="matrix(1 0 0 1 167.6172 -169.0997)" font-family="'CabinSketch-Regular'" font-size="42.6567">risd library</text>
<text transform="matrix(1 0 0 1 187.4414 -106.833)" font-family="'CabinSketch-Regular'" font-size="21.3284">15 westminster st</text>
<text transform="matrix(1 0 0 1 205.5781 -81.2344)" font-family="'CabinSketch-Regular'" font-size="21.3284">providence, ri</text>
<text transform="matrix(1 0 0 1 237.5674 -55.6426)" font-family="'CabinSketch-Regular'" font-size="21.3284">02903</text>
<text transform="matrix(1 0 0 1 -47.5264 58.9863)" font-family="'CabinSketch-Regular'" font-size="42.6567">get tix!</text>
</svg>
