<?xml version="1.0" encoding="utf-8"?>
<!-- Generator: Adobe Illustrator 18.1.1, SVG Export Plug-In . SVG Version: 6.00 Build 0)  -->
<svg version="1.1" id="Layer_1" xmlns="http://www.w3.org/2000/svg" xmlns:xlink="http://www.w3.org/1999/xlink" x="0px" y="0px"
	 viewBox="0 0 79.5 66.9" enable-background="new 0 0 79.5 66.9" xml:space="preserve">
<path fill="#4D4D4D" d="M63.5,64.8H15.9c-6.6,0-12-5.4-12-12v-38c0-6.6,5.4-12,12-12h47.6c6.6,0,12,5.4,12,12v38
	C75.5,59.4,70.1,64.8,63.5,64.8z"/>
<path fill="#FF1D25" d="M39.6,58.9L39.6,58.9c-4.4,0-8-3.6-8-8V16.7c0-4.4,3.6-8,8-8h0c4.4,0,8,3.6,8,8v34.1
	C47.6,55.3,44,58.9,39.6,58.9z"/>
<path fill="#FF1D25" d="M64.9,33.8L64.9,33.8c0-4.4-3.6-8-8-8H22.8c-4.4,0-8,3.6-8,8v0c0,4.4,3.6,8,8,8h34.1
	C61.4,41.8,64.9,38.2,64.9,33.8z"/>
</svg>
